<svg width="35" height="41" viewBox="0 0 35 41" fill="none" xmlns="http://www.w3.org/2000/svg">
<path d="M5.29723 32.4537H33.6339C33.7206 32.4537 33.8047 32.4417 33.8855 32.4228C33.8919 32.4228 33.8972 32.4239 33.9037 32.4239C34.5086 32.4239 35 31.9442 35 31.3526V1.07128C35.0001 0.47986 34.5086 -0.00012207 33.9037 -0.00012207H33.636H7.05064H5.29877C2.38065 -0.00012207 0.00701798 2.32004 0.00701798 5.171C0.00701798 5.20923 0.0147162 5.24552 0.0185201 5.28243C0.0147162 7.91601 -0.0187036 32.1153 0.0147162 35.2965C0.0126332 35.3587 0.00484414 35.4195 0.00484414 35.4823C0.00484414 38.2237 2.20132 40.4679 4.96412 40.6375C5.01955 40.6458 5.07389 40.6537 5.1314 40.6537H33.9036C34.5085 40.6537 34.9999 40.174 34.9999 39.5823V35.5494C34.9999 34.9582 34.5084 34.478 33.9036 34.478C33.2988 34.478 32.8072 34.9582 32.8072 35.5494V38.511H5.29723C3.63122 38.511 2.27124 37.2183 2.2044 35.6064C2.20603 35.5776 2.21137 35.5504 2.21083 35.5212C2.20974 35.4741 2.20811 35.4009 2.20703 35.3035C2.30285 33.7171 3.65024 32.4537 5.29723 32.4537ZM6.04479 5.171C6.04479 4.57958 6.53594 4.0996 7.14112 4.0996C7.7463 4.0996 8.23746 4.57958 8.23746 5.171V26.934C8.23746 27.5251 7.7463 28.0054 7.14112 28.0054C6.53594 28.0054 6.04479 27.525 6.04479 26.934V5.171Z" fill="#F24040"/>
</svg>
