<svg width="37" height="41" viewBox="0 0 37 41" fill="none" xmlns="http://www.w3.org/2000/svg">
<path d="M20.3356 23.0995C19.7227 23.1184 19.1098 23.1288 18.4998 23.1288C17.8876 23.1288 17.2726 23.1191 16.6583 23.0995C11.4869 22.9591 7.36587 22.2348 4.3987 21.2017C3.00388 20.7351 1.80983 20.186 0.887695 19.5581V26.124C2.89258 28.1993 9.61872 30.1132 18.4991 30.1132C27.3795 30.1132 34.1056 28.1993 36.1105 26.124V19.5581C35.182 20.1902 33.9774 20.7434 32.5706 21.2114C29.6048 22.2396 25.4922 22.9598 20.3356 23.0995Z" fill="#F24040"/>
<path d="M0.887695 10.4V16.9659C2.74605 18.8896 8.65995 20.675 16.5872 20.9251C16.6682 20.9278 16.7513 20.9285 16.833 20.9306C17.0627 20.9369 17.2916 20.9432 17.5248 20.9467C17.8468 20.9523 18.1715 20.9551 18.4991 20.9551C18.8267 20.9551 19.1514 20.9523 19.4733 20.9474C19.7058 20.9439 19.9355 20.9376 20.1651 20.9313C20.2468 20.9292 20.33 20.9278 20.411 20.9258C28.3382 20.675 34.2521 18.8896 36.1105 16.9666V10.4C32.6819 12.7351 25.4337 13.97 18.4991 13.97C11.5644 13.97 4.31699 12.7351 0.887695 10.4Z" fill="#F24040"/>
<path d="M36.0154 5.96652C35.225 2.96225 29.1469 -0.00012207 18.4991 -0.00012207C7.87801 -0.00012207 1.80631 2.94758 0.991251 5.94417C0.931372 6.04685 0.887695 6.15931 0.887695 6.28644V7.8972C2.88624 9.96548 9.56448 11.8745 18.4991 11.8745C27.4337 11.8745 34.1126 9.96548 36.1105 7.8972V6.28644C36.1105 6.16909 36.071 6.06362 36.0154 5.96652Z" fill="#F24040"/>
<path d="M0.887695 28.6387V34.3671C0.887695 34.4803 0.917987 34.5872 0.970117 34.6821C1.80208 38.1013 9.24536 40.6537 18.4991 40.6537C27.7317 40.6537 35.163 38.1118 36.0224 34.7052C36.0788 34.6046 36.1105 34.4894 36.1105 34.3671V28.6401C33.1976 30.6734 27.1956 32.2716 18.4991 32.2716C9.80188 32.2716 3.79991 30.672 0.887695 28.6387Z" fill="#F24040"/>
</svg>
