<svg width="33" height="41" viewBox="0 0 33 41" fill="none" xmlns="http://www.w3.org/2000/svg">
<path d="M26.4045 17.2762H6.60432V20.4035H26.4045V17.2762Z" fill="#F24040"/>
<path d="M26.4045 23.5307H6.60432V26.6579H26.4045V23.5307Z" fill="#F24040"/>
<path d="M16.5044 29.7851H6.60432V32.9124H16.5044V29.7851Z" fill="#F24040"/>
<path d="M29.7001 6.33135H25.1189C24.5078 5.68802 23.7228 5.19578 22.8209 4.9499C22.0611 4.74292 21.4763 4.18881 21.2579 3.46877C20.6634 1.50995 18.7584 0.0769043 16.5001 0.0769043C14.2419 0.0769043 12.3369 1.50995 11.7423 3.46867C11.5236 4.1895 10.9374 4.74292 10.1767 4.95058C9.27564 5.19666 8.49147 5.68841 7.88096 6.33135H3.30002C1.47748 6.33135 0 7.73147 0 9.45857V37.6035C0 39.3306 1.47738 40.7307 3.29992 40.7307H29.7C31.5226 40.7307 33 39.3306 33 37.6035V9.45857C33.0001 7.73147 31.5227 6.33135 29.7001 6.33135ZM16.5213 3.20413C17.4327 3.20413 18.1714 3.90414 18.1714 4.76774C18.1714 5.63124 17.4327 6.33135 16.5213 6.33135C15.61 6.33135 14.8713 5.63124 14.8713 4.76774C14.8713 3.90414 15.61 3.20413 16.5213 3.20413ZM29.7001 37.6035H3.30002V9.45857H6.60004V12.5858H26.4002V9.45857H29.7001V37.6035Z" fill="#F24040"/>
</svg>
