<svg xmlns="http://www.w3.org/2000/svg" width="32" height="24" viewBox="0 0 32 24" fill="none">
<path d="M15.668 16.5964L15.9999 16.8909L16.3318 16.5964L19.9621 13.3746L30.4596 22.5041C30.2285 22.6136 29.9706 22.675 29.6982 22.675H2.3016C2.02723 22.675 1.76736 22.6133 1.53459 22.5033L12.0376 13.3745L15.668 16.5964ZM29.6981 0.5C29.9743 0.5 30.234 0.561172 30.466 0.670832L15.9998 13.2427L1.53594 0.673554C1.76835 0.56208 2.02762 0.5 2.30149 0.5H29.6981ZM0.5 20.1978V3.14185L10.2858 11.7663L0.5 20.1978ZM31.5 3.13548V20.1979L21.714 11.7663L31.5 3.13548Z" fill="#202020" stroke="#202020"/>
</svg>