<svg width="42" height="41" viewBox="0 0 42 41" fill="none" xmlns="http://www.w3.org/2000/svg">
<path d="M39.3186 0.12561H2.68139C1.20182 0.12561 0 1.2871 0 2.72095V38.1841C0 39.6144 1.20182 40.7794 2.68139 40.7794H39.3186C40.7982 40.7794 42 39.6162 42 38.1841V2.71919C41.9982 1.2871 40.7982 0.12561 39.3186 0.12561ZM19.0711 23.0391C19.0711 24.1689 18.9604 25.1319 18.7389 25.9261C18.5174 26.7203 18.1815 27.3582 17.7349 27.8572C17.2865 28.3492 16.7256 28.713 16.0575 28.9397C15.3876 29.1698 14.6088 29.2823 13.721 29.2823C12.9404 29.2823 12.236 29.1628 11.6024 28.9256C10.9688 28.6884 10.4333 28.3492 9.99032 27.9064C9.54554 27.4619 9.20424 26.9259 8.9646 26.2969C8.72315 25.666 8.60333 24.9614 8.60333 24.19V23.684H11.1195C11.1195 25.9507 11.9873 27.0858 13.7228 27.0858C14.1676 27.0858 14.5616 27.0366 14.9101 26.933C15.2569 26.8275 15.551 26.636 15.7924 26.3496C16.0339 26.0649 16.2154 25.6713 16.3407 25.1617C16.466 24.6522 16.5295 23.988 16.5295 23.1674V10.4841H19.0747V23.0391H19.0711ZM33.1135 26.7203C32.8539 27.2334 32.4835 27.6815 32.0097 28.0646C31.5322 28.4476 30.9495 28.7446 30.2651 28.9625C29.5824 29.1751 28.8127 29.2823 27.9649 29.2823C24.207 29.2823 22.2227 27.8467 22.0212 24.972H24.4938C24.5047 26.5956 25.6539 27.4092 27.9377 27.4092C28.4442 27.4092 28.898 27.3564 29.2883 27.2457C29.6787 27.1386 30.0054 26.9892 30.2632 26.7994C30.5247 26.6096 30.7207 26.383 30.8569 26.1247C30.9894 25.8681 31.0602 25.5887 31.0602 25.283C31.0602 24.9614 31.0076 24.7066 30.9077 24.5133C30.806 24.3183 30.6064 24.1443 30.3123 23.9932C30.02 23.8439 29.6115 23.6963 29.0923 23.5539C28.5713 23.4063 27.8905 23.2253 27.0517 23.0127C26.2348 22.8159 25.5268 22.6191 24.9349 22.4223C24.3395 22.229 23.8529 21.9918 23.4735 21.7124C23.0923 21.4313 22.8091 21.0869 22.6257 20.6774C22.4424 20.2663 22.3516 19.7479 22.3516 19.1224C22.3516 18.5724 22.4714 18.061 22.7129 17.5901C22.9543 17.1192 23.2974 16.7115 23.7477 16.3654C24.1943 16.0192 24.7371 15.7503 25.3725 15.5535C26.0133 15.3567 26.7213 15.2601 27.5002 15.2601C31.1346 15.2601 32.9827 16.5094 33.039 19.0117H30.6082C30.521 17.7623 29.548 17.135 27.6871 17.135C27.2732 17.135 26.892 17.1754 26.538 17.2545C26.184 17.3336 25.8808 17.4478 25.6194 17.5971C25.3579 17.7465 25.1582 17.931 25.0112 18.1506C24.8678 18.3703 24.7952 18.6251 24.7952 18.9133C24.7952 19.1751 24.8297 19.3894 24.8968 19.5564C24.964 19.7251 25.1256 19.8832 25.3815 20.0273C25.6375 20.1714 26.0169 20.3137 26.5162 20.4543C27.0172 20.5949 27.7017 20.7671 28.5713 20.9727C29.41 21.1677 30.138 21.3715 30.757 21.5806C31.3725 21.7915 31.8844 22.0463 32.2965 22.345C32.7068 22.642 33.0082 23.0057 33.2079 23.4362C33.4039 23.865 33.5038 24.4026 33.5038 25.0458C33.5038 25.6485 33.3713 26.2073 33.1135 26.7203Z" fill="#F24040"/>
</svg>
