<svg width="37" height="41" viewBox="0 0 37 41" fill="none" xmlns="http://www.w3.org/2000/svg">
<path d="M35.6287 0.12561H1.36969C0.54906 0.12561 -0.0666148 0.796611 0.005786 1.58948L3.13493 35.4725C3.20742 36.2647 3.91659 37.094 4.71202 37.3081L17.0475 40.619C17.8419 40.8318 19.1402 40.8331 19.9358 40.6218L32.2865 37.3155C33.0821 37.102 33.7913 36.2803 33.8637 35.4866L36.9942 1.58948C37.0666 0.796611 36.4535 0.12561 35.6287 0.12561ZM29.6873 12.3564C29.6867 12.3616 29.6825 12.3657 29.6772 12.3665C29.6719 12.3674 29.6667 12.3647 29.6644 12.3599L19.9998 16.1868C19.8622 16.2413 19.7837 16.3823 19.8123 16.5234C19.8411 16.6644 19.9691 16.7662 20.1179 16.7662H27.6354C28.0353 16.7662 28.4162 16.9303 28.6837 17.2176C28.951 17.505 29.0795 17.8885 29.0371 18.2727L27.8625 28.9197C27.8048 29.442 27.4416 29.8858 26.9287 30.0602L18.9495 32.773C18.649 32.8753 18.3214 32.8761 18.0202 32.7752L10.0783 30.1169C9.56224 29.9442 9.19595 29.4991 9.13794 28.9744L8.60548 24.1526C8.5775 23.8995 8.66215 23.6467 8.83824 23.4575C9.01441 23.2682 9.2654 23.1601 9.5289 23.1601H11.7389C12.2138 23.1601 12.6121 23.5061 12.6623 23.9623L12.989 26.9262L18.488 28.7732L24.0122 26.9093L24.6878 20.7625H9.06867C8.5952 20.7625 8.19753 20.4183 8.1456 19.9635L7.84822 17.3583C7.80282 16.9609 8.03486 16.5825 8.41724 16.4303L18.4136 12.4479C18.5271 12.4027 18.5915 12.2865 18.5677 12.1703C18.5439 12.0541 18.4385 11.9704 18.3159 11.9704H7.79111C7.47424 11.9704 7.2085 11.7392 7.17543 11.4349L6.87099 8.63469C6.85267 8.46618 6.90925 8.29802 7.02661 8.17201C7.14397 8.04608 7.31121 7.97414 7.48658 7.97414H29.5088C29.6852 7.97414 29.8531 8.04686 29.9706 8.17391C30.088 8.30104 30.1438 8.4705 30.1239 8.63978L29.6873 12.3564Z" fill="#F24040"/>
</svg>
